<svg id="visual" viewBox="0 0 900 300" width="900" height="300" xmlns="http://www.w3.org/2000/svg" xmlns:xlink="http://www.w3.org/1999/xlink" version="1.1"><rect width="900" height="300" fill="#1f9490"></rect><g><g transform="translate(590 238)"><path d="M58.4 -27.1C62.2 -7.5 42.3 11.6 16.5 32.7C-9.3 53.8 -41 76.9 -52.4 69.3C-63.9 61.6 -55.1 23.3 -43 -7.8C-30.9 -39 -15.5 -62.9 5.9 -64.8C27.4 -66.8 54.7 -46.7 58.4 -27.1Z" fill="#ecd6c4"></path></g><g transform="translate(97 56)"><path d="M84.2 -24.6C94.3 3.9 77.6 43.8 53.5 57.5C29.5 71.1 -1.9 58.4 -22.5 41.1C-43.1 23.7 -52.9 1.7 -47.4 -20.4C-41.9 -42.5 -20.9 -64.6 8 -67.3C37 -69.9 74 -53 84.2 -24.6Z" fill="#ecd6c4"></path></g><g transform="translate(864 15)"><path d="M55.8 -20.3C62.9 3.8 52.8 31.3 34.7 43.4C16.6 55.5 -9.5 52.3 -31.4 37.7C-53.3 23.1 -71 -2.9 -65.1 -25.3C-59.1 -47.7 -29.6 -66.5 -2.6 -65.7C24.3 -64.8 48.7 -44.3 55.8 -20.3Z" fill="#ecd6c4"></path></g></g></svg>